<svg width="171" height="171" viewBox="0 0 171 171" fill="none" xmlns="http://www.w3.org/2000/svg">
<path d="M75.9603 147.984C76.5006 148.067 77.0896 148.184 77.7272 148.336C78.3648 148.488 78.9138 148.647 79.374 148.812L79.0792 150.73C77.9772 150.439 77.0441 150.235 76.2797 150.117C75.3573 149.975 74.7485 150.03 74.4535 150.281C74.3015 150.393 74.1885 150.558 74.1145 150.776C74.0385 151.007 73.9701 151.32 73.9093 151.715C73.8242 152.269 73.7963 152.669 73.8257 152.917C73.8552 153.164 73.9606 153.356 74.1421 153.491C74.3083 153.638 74.6226 153.788 75.0849 153.94L76.9902 154.577C77.6329 154.784 78.0338 155.203 78.193 155.834C78.3391 156.464 78.3259 157.339 78.1537 158.459C77.9916 159.513 77.7144 160.307 77.3221 160.84C76.9278 161.387 76.4367 161.729 75.8488 161.868C75.2608 162.007 74.5385 162.011 73.6819 161.879C73.1285 161.794 72.5744 161.668 72.0199 161.502C71.4502 161.347 71.0011 161.197 70.6727 161.052L70.9614 159.174C71.6265 159.411 72.4202 159.601 73.3427 159.743C73.8698 159.824 74.2824 159.86 74.5805 159.852C74.8785 159.844 75.1101 159.785 75.2753 159.675C75.4538 159.568 75.5865 159.406 75.6737 159.19C75.7477 158.972 75.8191 158.639 75.888 158.191C75.961 157.717 75.9873 157.37 75.967 157.151C75.9447 156.946 75.8747 156.786 75.7571 156.674C75.6264 156.559 75.4003 156.45 75.0789 156.347L73.2892 155.748C72.7874 155.59 72.3956 155.375 72.1137 155.102C71.8187 154.827 71.6261 154.413 71.5358 153.86C71.4476 153.293 71.4724 152.562 71.6102 151.665C71.7905 150.493 72.0667 149.618 72.4387 149.041C72.8087 148.477 73.2744 148.124 73.836 147.981C74.3824 147.849 75.0905 147.85 75.9603 147.984Z" fill="#E23C36"/>
<path d="M63.8241 145.068L59.5906 155.911L62.1616 156.915L61.3905 158.889L54.1434 156.06L54.9144 154.085L57.4668 155.082L61.7003 144.239L63.8241 145.068Z" fill="#E23C36"/>
<path d="M46.4476 142.579L45.2962 144.263L42.2584 142.185L46.5369 135.928C46.9568 136.07 47.4497 136.294 48.0157 136.6C48.5781 136.888 49.096 137.194 49.5693 137.517C50.5928 138.217 51.2524 138.894 51.548 139.549C51.825 140.206 51.7824 141.001 51.4201 141.932C51.0578 142.864 50.316 144.15 49.1947 145.789C48.0733 147.429 47.1389 148.583 46.3914 149.251C45.6439 149.919 44.9062 150.231 44.1781 150.185C43.4426 150.151 42.5465 149.772 41.4899 149.05C41.0717 148.764 40.6375 148.418 40.1873 148.014C39.7297 147.62 39.3586 147.253 39.0741 146.913L40.1579 145.328C40.4724 145.624 40.8183 145.933 41.1954 146.256C41.5616 146.571 41.8492 146.8 42.0583 146.943C42.8508 147.485 43.45 147.789 43.856 147.857C44.2435 147.928 44.6859 147.73 45.1833 147.262C45.6621 146.798 46.3719 145.878 47.3126 144.503C48.1856 143.226 48.7717 142.286 49.071 141.683C49.3702 141.08 49.472 140.6 49.3763 140.244C49.2807 139.888 48.9632 139.526 48.4239 139.157C48.1267 138.954 47.7832 138.759 47.3934 138.573L45.2259 141.743L46.4476 142.579Z" fill="#E23C36"/>
<path d="M35.1084 124.108L23.7698 131.904L20.0532 126.498L21.7507 125.331L24.1756 128.858L27.241 126.75L25.1447 123.701L26.8422 122.534L28.9384 125.583L32.1192 123.396L29.6943 119.869L31.3918 118.702L35.1084 124.108Z" fill="#E23C36"/>
<path d="M25.6857 106.624L19.0863 113.146L19.115 113.221L27.0491 110.171L27.8384 112.225L14.9946 117.162L14.1766 115.033L20.4413 108.811L20.4126 108.737L12.8706 111.636L12.0813 109.582L24.9251 104.645L25.6857 106.624Z" fill="#E23C36"/>
<path d="M22.8106 95.2447L11.2712 96.7722L11.6334 99.5084L9.53178 99.7866L8.51081 92.0739L10.6125 91.7956L10.972 94.512L22.5114 92.9844L22.8106 95.2447Z" fill="#E23C36"/>
<path d="M22.0185 83.162L8.31185 81.9519L8.88875 75.4173L10.9408 75.5985L10.5644 79.8619L14.27 80.1891L14.5953 76.5034L16.6474 76.6846L16.322 80.3702L20.167 80.7097L20.5434 76.4463L22.5954 76.6274L22.0185 83.162Z" fill="#E23C36"/>
<path d="M25.7866 63.9403L20.5551 63.7892L19.9468 65.6524L24.7189 67.2104L24.0113 69.3778L10.9308 65.1073L12.3088 60.8866C12.6067 59.974 12.9886 59.3413 13.4544 58.9884C13.9244 58.6229 14.4758 58.4593 15.1085 58.4975C15.7453 58.5231 16.5454 58.6931 17.5087 59.0076C18.4466 59.3138 19.1951 59.6634 19.7541 60.0563C20.3172 60.4365 20.6535 60.953 20.763 61.6059L26.5314 61.6588L25.7866 63.9403ZM18.4913 63.4731C18.6486 62.9914 18.7053 62.6243 18.6616 62.3715C18.6052 62.1147 18.4416 61.907 18.1707 61.7484C17.8914 61.5731 17.4348 61.3819 16.8011 61.175C16.1673 60.9681 15.6923 60.8551 15.3759 60.836C15.0637 60.8042 14.8154 60.8774 14.631 61.0556C14.4339 61.2297 14.2567 61.5576 14.0994 62.0393L13.5967 63.5793L17.9885 65.0131L18.4913 63.4731Z" fill="#E23C36"/>
<path d="M17.7264 48.2796L19.9878 44.5987C20.4834 43.7921 21.0102 43.2786 21.5682 43.058C22.1218 42.8192 22.7131 42.7991 23.3422 42.9978C23.9782 43.1851 24.745 43.5545 25.6425 44.1059C26.5059 44.6363 27.174 45.1407 27.6469 45.619C28.1085 46.0904 28.3657 46.6396 28.4186 47.2668C28.4784 47.8825 28.2571 48.5994 27.7545 49.4174L26.7076 51.1215L30.644 53.5399L29.4505 55.4826L17.7264 48.2796ZM25.7167 48.7991C25.9889 48.3561 26.1275 48.0031 26.1325 47.7401C26.1376 47.4772 26.0156 47.2301 25.7664 46.9988C25.5173 46.7675 25.0747 46.4564 24.4385 46.0656C23.8137 45.6817 23.3418 45.4309 23.0229 45.3132C22.704 45.1955 22.4284 45.1984 22.1961 45.3217C21.9639 45.445 21.7151 45.7225 21.4499 46.1542L20.6751 47.4153L24.9524 50.0431L25.7167 48.7991Z" fill="#E23C36"/>
<path d="M42.0285 39.1975L37.4345 36.6903L36.0474 38.075L39.5939 41.6278L37.9803 43.2386L28.2591 33.5002L31.4014 30.3634C32.0808 29.6852 32.7081 29.2945 33.2833 29.1913C33.868 29.0787 34.4336 29.1829 34.9801 29.5039C35.5361 29.8155 36.1721 30.3299 36.888 31.0471C37.585 31.7454 38.0936 32.3964 38.4136 33C38.7431 33.5943 38.8085 34.2072 38.61 34.8387L43.7271 37.5019L42.0285 39.1975ZM35.7386 35.4726C36.0971 35.1146 36.3142 34.8131 36.3899 34.568C36.4561 34.3135 36.4045 34.0542 36.235 33.7901C36.0655 33.5071 35.7453 33.1297 35.2743 32.6579C34.8033 32.186 34.4312 31.8699 34.1579 31.7094C33.8941 31.5394 33.6396 31.4921 33.3944 31.5673C33.1398 31.633 32.8332 31.8449 32.4746 32.2029L31.3281 33.3474L34.592 36.6171L35.7386 35.4726Z" fill="#E23C36"/>
<path d="M49.2097 33.3888L41.5726 21.9427L43.4858 20.6661L51.1229 32.1122L49.2097 33.3888Z" fill="#E23C36"/>
<path d="M60.7787 27.1885C60.2752 27.4015 59.7122 27.6106 59.0897 27.816C58.4672 28.0213 57.9167 28.1745 57.4383 28.2755L56.6826 26.4887C57.7732 26.1578 58.6746 25.8417 59.3869 25.5405C60.2465 25.177 60.7358 24.8108 60.8549 24.4419C60.9258 24.2672 60.9355 24.0676 60.884 23.8433C60.8274 23.6067 60.7212 23.3042 60.5654 22.9357C60.3472 22.42 60.1607 22.0646 60.0058 21.8695C59.851 21.6744 59.6606 21.5667 59.4349 21.5463C59.2162 21.5085 58.8703 21.5463 58.397 21.6596L56.441 22.1177C55.7854 22.2791 55.2241 22.1328 54.7571 21.6789C54.3023 21.2198 53.8542 20.4683 53.4128 19.4245C52.9973 18.4421 52.8165 17.6209 52.8704 16.9612C52.9192 16.2891 53.1573 15.7396 53.5848 15.3127C54.0122 14.8858 54.6251 14.5036 55.4233 14.166C55.9391 13.9479 56.4766 13.764 57.0358 13.6144C57.6021 13.4473 58.063 13.3392 58.4187 13.2901L59.1588 15.04C58.4683 15.1873 57.6932 15.4427 56.8336 15.8062C56.3424 16.014 55.9721 16.1995 55.7227 16.3629C55.4733 16.5263 55.307 16.698 55.2239 16.8779C55.1284 17.063 55.1003 17.2703 55.1395 17.4999C55.1909 17.7242 55.3049 18.0452 55.4815 18.4627C55.6685 18.9048 55.8281 19.2137 55.9603 19.3894C56.0873 19.5528 56.2304 19.6516 56.3896 19.6856C56.561 19.7144 56.8106 19.6885 57.1384 19.6078L58.9761 19.178C59.4862 19.0491 59.9328 19.0267 60.3158 19.1109C60.7111 19.1898 61.0924 19.4411 61.4598 19.8648C61.8324 20.3008 62.1953 20.9363 62.5484 21.7713C63.0107 22.8643 63.2349 23.7539 63.2211 24.4401C63.2021 25.1141 62.9911 25.6593 62.5882 26.0758C62.1924 26.4748 61.5892 26.8457 60.7787 27.1885Z" fill="#E23C36"/>
<path d="M70.8483 23.6256L68.3789 10.089L74.8324 8.91177L75.2021 10.9383L70.9915 11.7064L71.6591 15.366L75.2991 14.702L75.6688 16.7286L72.0288 17.3926L72.7216 21.1899L76.9321 20.4218L77.3018 22.4484L70.8483 23.6256Z" fill="#E23C36"/>
<path d="M96.7747 23.1729C96.2369 23.0748 95.6514 22.9409 95.0183 22.7712C94.3851 22.6015 93.8408 22.4276 93.3853 22.2497L93.7335 20.3412C94.8269 20.6626 95.754 20.8927 96.5148 21.0315C97.433 21.199 98.043 21.1612 98.3448 20.9181C98.4999 20.8109 98.6175 20.6493 98.6975 20.4335C98.7799 20.2046 98.857 19.8934 98.9288 19.4999C99.0293 18.949 99.0683 18.5495 99.0458 18.3014C99.0233 18.0533 98.9232 17.8589 98.7456 17.7181C98.5835 17.5665 98.2735 17.4083 97.8157 17.2435L95.9289 16.5537C95.2922 16.3291 94.903 15.8989 94.7615 15.2632C94.6331 14.6299 94.6705 13.7558 94.8739 12.6408C95.0654 11.5915 95.3646 10.8057 95.7715 10.2836C96.1809 9.74841 96.6814 9.41955 97.273 9.29707C97.8645 9.17458 98.5866 9.1911 99.4392 9.34663C99.9901 9.44713 100.54 9.58818 101.09 9.76977C101.655 9.94064 102.1 10.1031 102.424 10.2571L102.083 12.1263C101.425 11.8707 100.637 11.6591 99.7188 11.4916C99.1942 11.3959 98.7827 11.348 98.4846 11.3478C98.1865 11.3476 97.9533 11.4 97.7851 11.5048C97.6037 11.6073 97.4665 11.7652 97.3734 11.9786C97.2933 12.1944 97.2126 12.5253 97.1313 12.9713C97.0451 13.4435 97.0092 13.7893 97.0233 14.0088C97.0399 14.2151 97.1054 14.3761 97.2198 14.4919C97.3474 14.61 97.5703 14.7252 97.8887 14.8375L99.661 15.4861C100.158 15.6581 100.544 15.8844 100.818 16.1648C101.105 16.4476 101.286 16.8669 101.361 17.4227C101.434 17.9915 101.388 18.722 101.226 19.6139C101.013 20.7813 100.712 21.6481 100.324 22.2144C99.9388 22.7675 99.4634 23.1077 98.898 23.235C98.3482 23.3515 97.6404 23.3308 96.7747 23.1729Z" fill="#E23C36"/>
<path d="M108.825 26.4257L113.359 15.7051L110.817 14.63L111.642 12.6774L118.808 15.7079L117.982 17.6604L115.458 16.5932L110.925 27.3138L108.825 26.4257Z" fill="#E23C36"/>
<path d="M126.125 29.3983L127.323 27.747L130.302 29.908L125.851 36.0435C125.435 35.8901 124.949 35.6524 124.391 35.3306C123.837 35.0273 123.328 34.7074 122.864 34.3707C121.86 33.6426 121.22 32.9473 120.943 32.285C120.684 31.6197 120.749 30.8265 121.137 29.9056C121.525 28.9846 122.302 27.7201 123.469 26.1121C124.636 24.504 125.602 23.3765 126.368 22.7296C127.133 22.0827 127.88 21.7921 128.606 21.8579C129.34 21.9129 130.225 22.3162 131.262 23.0679C131.672 23.3654 132.096 23.7227 132.535 24.1398C132.981 24.5461 133.342 24.9231 133.617 25.2707L132.489 26.8248C132.183 26.5203 131.846 26.2017 131.478 25.8688C131.121 25.5438 130.84 25.3069 130.635 25.1581C129.858 24.5944 129.267 24.273 128.863 24.1941C128.478 24.1122 128.03 24.298 127.52 24.7515C127.028 25.2021 126.293 26.1019 125.314 27.4509C124.406 28.7028 123.794 29.626 123.478 30.2204C123.162 30.8148 123.047 31.2914 123.133 31.6501C123.219 32.0088 123.526 32.3799 124.055 32.7636C124.346 32.975 124.684 33.179 125.069 33.3756L127.323 30.2673L126.125 29.3983Z" fill="#E23C36"/>
<path d="M136.946 48.1779L148.497 40.701L152.062 46.208L150.332 47.3273L148.007 43.7343L144.884 45.7557L146.894 48.8618L145.165 49.9812L143.155 46.8751L139.914 48.9725L142.24 52.5655L140.51 53.6849L136.946 48.1779Z" fill="#E23C36"/>
<path d="M145.878 65.9172L152.656 59.5816L152.629 59.5062L144.613 62.3336L143.882 60.2589L156.858 55.6818L157.616 57.8319L151.181 63.8769L151.207 63.9524L158.827 61.2646L159.559 63.3394L146.583 67.9165L145.878 65.9172Z" fill="#E23C36"/>
<path d="M148.435 77.3723L160.012 76.1669L159.726 73.4217L161.835 73.2022L162.641 80.9403L160.532 81.1599L160.248 78.4346L148.671 79.64L148.435 77.3723Z" fill="#E23C36"/>
<path d="M148.89 89.4723L162.558 91.0638L161.799 97.5797L159.753 97.3415L160.248 93.0902L156.553 92.66L156.125 96.3351L154.079 96.0969L154.507 92.4217L150.673 91.9753L150.178 96.2265L148.131 95.9883L148.89 89.4723Z" fill="#E23C36"/>
<path d="M144.587 108.582L149.813 108.878L150.472 107.033L145.746 105.342L146.513 103.196L159.47 107.829L157.975 112.01C157.652 112.914 157.252 113.535 156.777 113.875C156.297 114.227 155.741 114.376 155.11 114.32C154.474 114.276 153.679 114.084 152.725 113.743C151.795 113.411 151.057 113.04 150.509 112.632C149.957 112.236 149.635 111.711 149.544 111.055L143.779 110.841L144.587 108.582ZM151.867 109.252C151.696 109.729 151.629 110.094 151.666 110.348C151.715 110.607 151.873 110.819 152.139 110.985C152.413 111.168 152.865 111.372 153.492 111.596C154.12 111.821 154.592 111.947 154.907 111.975C155.219 112.015 155.469 111.949 155.658 111.776C155.86 111.607 156.046 111.285 156.217 110.807L156.762 109.282L152.412 107.726L151.867 109.252Z" fill="#E23C36"/>
<path d="M152.209 124.461L149.845 128.077C149.328 128.87 148.787 129.368 148.223 129.573C147.663 129.797 147.071 129.8 146.448 129.584C145.817 129.379 145.061 128.989 144.179 128.412C143.331 127.858 142.677 127.335 142.218 126.844C141.77 126.36 141.528 125.804 141.492 125.175C141.45 124.558 141.691 123.848 142.216 123.044L143.31 121.37L139.442 118.843L140.69 116.934L152.209 124.461ZM144.236 123.719C143.951 124.154 143.803 124.503 143.791 124.766C143.778 125.029 143.893 125.279 144.136 125.517C144.379 125.755 144.812 126.079 145.437 126.487C146.051 126.888 146.516 127.152 146.832 127.278C147.147 127.405 147.423 127.41 147.658 127.293C147.894 127.176 148.15 126.906 148.427 126.482L149.237 125.243L145.035 122.497L144.236 123.719Z" fill="#E23C36"/>
<path d="M127.663 132.862L132.185 135.497L133.611 134.151L130.164 130.501L131.822 128.936L141.268 138.941L138.04 141.989C137.342 142.648 136.704 143.021 136.126 143.108C135.539 143.205 134.976 143.085 134.439 142.749C133.892 142.422 133.27 141.89 132.575 141.153C131.897 140.435 131.407 139.77 131.104 139.158C130.791 138.555 130.743 137.94 130.959 137.315L125.918 134.51L127.663 132.862ZM133.847 136.761C133.478 137.109 133.253 137.404 133.171 137.647C133.097 137.9 133.142 138.16 133.304 138.429C133.465 138.717 133.775 139.103 134.232 139.588C134.69 140.072 135.053 140.399 135.322 140.567C135.581 140.744 135.834 140.799 136.081 140.73C136.338 140.672 136.65 140.468 137.018 140.12L138.196 139.008L135.025 135.649L133.847 136.761Z" fill="#E23C36"/>
<path d="M120.322 138.469L127.637 150.123L125.689 151.346L118.374 139.691L120.322 138.469Z" fill="#E23C36"/>
<path d="M108.586 144.344C109.095 144.145 109.664 143.952 110.292 143.764C110.92 143.576 111.474 143.438 111.955 143.351L112.661 145.158C111.561 145.458 110.651 145.749 109.931 146.03C109.062 146.37 108.562 146.722 108.433 147.088C108.357 147.26 108.342 147.46 108.387 147.685C108.437 147.923 108.535 148.229 108.681 148.601C108.884 149.123 109.061 149.483 109.21 149.683C109.36 149.882 109.547 149.995 109.772 150.022C109.989 150.066 110.336 150.037 110.812 149.937L112.781 149.534C113.44 149.391 113.997 149.553 114.452 150.019C114.893 150.491 115.32 151.255 115.733 152.31C116.12 153.304 116.278 154.13 116.206 154.788C116.139 155.458 115.885 156.001 115.446 156.416C115.007 156.831 114.384 157.196 113.576 157.511C113.055 157.715 112.512 157.883 111.949 158.017C111.378 158.169 110.915 158.264 110.558 158.303L109.867 156.533C110.561 156.405 111.343 156.171 112.212 155.832C112.709 155.638 113.084 155.463 113.338 155.306C113.592 155.15 113.763 154.983 113.851 154.806C113.952 154.623 113.986 154.417 113.953 154.186C113.908 153.961 113.803 153.637 113.638 153.214C113.463 152.767 113.312 152.454 113.185 152.275C113.063 152.108 112.922 152.005 112.764 151.967C112.594 151.933 112.343 151.952 112.013 152.023L110.164 152.402C109.651 152.516 109.204 152.526 108.823 152.432C108.43 152.342 108.056 152.08 107.701 151.646C107.341 151.2 106.996 150.555 106.666 149.71C106.234 148.605 106.035 147.709 106.068 147.024C106.105 146.35 106.332 145.811 106.746 145.406C107.153 145.018 107.766 144.664 108.586 144.344Z" fill="#E23C36"/>
<path d="M98.4207 147.625L100.512 161.225L94.0282 162.222L93.7151 160.186L97.9454 159.536L97.38 155.859L93.723 156.421L93.4099 154.385L97.0669 153.823L96.4803 150.008L92.25 150.658L91.9369 148.622L98.4207 147.625Z" fill="#E23C36"/>
</svg>
